<svg width="599" height="332" viewBox="0 0 599 332" fill="none" xmlns="http://www.w3.org/2000/svg">
<path fill-rule="evenodd" clip-rule="evenodd" d="M295.121 68.947C323.846 67.6242 347.657 82.4022 361.943 95.0258C376.57 107.952 390.97 126.623 393.653 155.99C394.938 169.974 393.275 184.26 388.816 196.393C381.068 217.52 365.005 234.717 346.22 246.471C329.742 256.79 323.09 255.316 312.394 259.624C328.305 259.775 352.268 252.216 364.173 246.207C386.926 234.679 403.783 220.619 416.331 199.945C444.601 153.419 444.564 92.1911 409.149 50.7297C380.614 17.3565 341.912 -0.445087 295.31 0.00845627L295.121 68.947Z" fill="black"/>
<path fill-rule="evenodd" clip-rule="evenodd" d="M264.129 71.782C250.523 71.8576 225.918 83.045 216.469 88.3741C202.145 96.5379 191.033 107.536 181.773 118.119C162.46 140.154 145.943 174.51 151.915 216.009C157.395 253.842 180.753 279.921 200.217 296.588C223.386 316.355 251.997 332.569 295.121 331.624L295.083 260.721C229.357 260.191 178.485 205.539 196.324 140.002C199.915 126.85 205.168 118.799 211.556 109.577C218.019 100.317 225.313 93.7033 234.119 87.2781C240.242 82.8182 255.512 74.2009 264.96 72.8781C265.641 72.2355 263.638 71.5552 267.417 72.1222C268.816 70.9127 270.668 71.1017 269.005 71.0261L267.606 70.6104C266.85 71.1773 267.304 71.0261 266.057 71.5174C265.414 71.7442 264.696 71.7064 264.129 71.782Z" fill="black"/>
<path fill-rule="evenodd" clip-rule="evenodd" d="M493.623 124.241L556.438 124.392C557.761 126.017 559.538 129.041 560.974 131.347C562.183 133.312 564.073 136.071 564.904 138.036C564.224 140.115 557.837 150.433 556.438 152.399H493.471L493.623 124.241ZM461.723 248.247L464.86 246.32L465.881 245.186C465.692 243.976 465.541 244.43 467.052 244.43L493.282 226.402L493.471 182.257H570.385C575.034 174.471 579.456 167.025 584.671 159.013C587.241 155.082 589.093 151.265 591.777 147.296C601.49 132.934 599.563 136.676 593.289 125.828C588.3 117.211 579.758 105.381 576.167 97.5576C574.92 97.5576 575.298 97.7465 575.676 96.3859L574.504 95.4032L460.665 95.1387C461.534 120.159 460.703 146.843 460.703 172.09C460.703 184.865 460.703 197.677 460.703 210.452C460.703 216.915 459.304 244.732 461.723 248.247Z" fill="black"/>
<path fill-rule="evenodd" clip-rule="evenodd" d="M128.557 213.816C128.709 212.418 128.293 212.645 129.578 212.947C129.276 211.662 128.898 211.813 130.069 211.964C129.767 210.717 129.427 210.906 130.674 211.095C130.409 209.848 130.032 209.999 131.203 210.188C130.863 208.941 130.561 209.13 131.732 209.281C133.093 204.368 132.904 117.023 132.035 107.725L99.7953 107.876L99.3039 209.772L33.1244 209.394L32.9354 107.234L8.82206 90.5283C6.47875 88.8653 2.96379 86.1062 0.43151 84.9346C-0.513372 121.483 0.393715 161.583 0.355919 198.887C0.355919 211.851 0.847258 209.394 11.2032 222.094L24.9606 238.572L107.543 238.648L128.557 213.816Z" fill="black"/>
<path fill-rule="evenodd" clip-rule="evenodd" d="M326.907 181.01L266.246 180.935L265.906 214.081C265.263 214.572 265.187 214.761 264.394 215.215C262.088 216.689 264.432 215.366 262.164 216.387C259.329 218.314 256.381 220.204 252.791 222.472L244.476 227.952C243.682 228.67 243.871 228.519 243.266 229.275L245.647 231.731C262.995 243.183 286.504 247.416 307.178 244.355C327.852 241.294 350.227 227.385 359.147 215.895C370.787 200.853 380.803 181.502 377.326 154.251C374.038 128.361 361.414 114.264 348.261 103.001C315.531 74.9944 260.614 78.585 231.172 109.653C218.208 123.335 207.89 140.342 208.684 167.744C209.326 188.342 217.565 207.165 231.701 220.96C233.742 222.925 232.57 222.207 235.254 223.114V123.561C238.806 120.576 243.38 114.717 246.857 110.862C250.447 106.856 254.605 101.262 258.233 97.7472H334.731L357.446 123.221L357.559 214.119H327.021L326.907 181.01Z" fill="black"/>
<path fill-rule="evenodd" clip-rule="evenodd" d="M265.943 154.893L326.945 154.478L327.21 124.128L265.943 124.015V154.893Z" fill="black"/>
<path fill-rule="evenodd" clip-rule="evenodd" d="M32.9355 107.234L33.1245 209.394L99.3041 209.772L99.7954 107.876L132.035 107.725C132.904 117.023 133.093 204.368 131.732 209.281C130.561 209.13 130.863 208.941 131.203 210.188C130.032 209.999 130.41 209.848 130.674 211.095C129.427 210.906 129.767 210.717 130.069 211.964C128.898 211.813 129.276 211.662 129.578 212.947C128.293 212.645 128.709 212.418 128.558 213.816C130.145 213.816 129.994 214.308 129.578 212.947C130.863 213.325 130.41 213.363 130.069 211.964C131.241 212.116 130.939 212.305 130.674 211.095C131.884 211.322 131.506 211.473 131.203 210.188C132.375 210.339 132.035 210.528 131.732 209.281C133.962 208.752 132.98 189.174 132.98 185.13L133.055 110.484C132.753 106.44 132.942 108.519 132.035 107.725C130.939 106.856 134.718 107.12 128.558 107.083H106.825C105.616 107.083 104.293 107.007 103.159 107.045C99.5308 107.12 100.4 107.347 99.7954 107.876C97.9056 109.01 99.0395 154.818 99.0395 157.615C99.0395 174.509 98.6237 191.933 99.0773 208.79L33.9182 208.903C32.7844 189.59 33.8426 144.235 33.8426 119.971L32.9355 107.234Z" fill="black"/>
<path fill-rule="evenodd" clip-rule="evenodd" d="M265.943 154.894L324.753 155.347C328.835 155.687 325.622 155.612 326.945 154.478L265.943 154.894V124.015L327.209 124.128C325.887 122.73 329.931 122.843 324.753 122.957C314.699 122.957 271.688 121.747 265.339 123.524C264.734 128.739 265.112 134.22 265.112 139.511C265.112 142.081 264.318 152.853 265.943 154.894Z" fill="black"/>
<path fill-rule="evenodd" clip-rule="evenodd" d="M262.164 216.386C264.432 215.365 262.088 216.688 264.394 215.214C265.188 214.761 265.263 214.572 265.906 214.08L266.246 180.934L326.907 181.01C325.698 179.725 328.835 179.762 324.753 180.065L265.679 180.103C264.545 183.882 264.772 209.394 265.301 214.043L262.58 215.895C262.466 216.008 262.315 216.235 262.164 216.386Z" fill="black"/>
<path fill-rule="evenodd" clip-rule="evenodd" d="M269.004 71.0257C270.667 71.1013 268.816 70.9123 267.417 72.1217C263.638 71.5548 265.641 72.2351 264.96 72.8776L267.417 72.1217L280.645 69.665L271.915 69.7406C271.008 69.8918 271.348 69.7406 270.554 70.0052C269.118 70.4965 269.76 70.3831 269.004 71.0257ZM264.129 71.7816C264.696 71.706 265.414 71.7438 266.056 71.517C267.304 71.0257 266.85 71.1769 267.606 70.6099C265.187 70.4587 265.338 70.4209 264.129 71.7816Z" fill="black"/>
<path fill-rule="evenodd" clip-rule="evenodd" d="M131.732 209.281C133.093 204.368 132.904 117.023 132.035 107.725L99.7953 107.876L99.3039 209.772L33.1244 209.394L32.9354 107.234L8.82206 90.5283C6.47875 88.8653 2.96379 86.1062 0.43151 84.9346C-0.513372 121.483 0.393715 161.583 0.355919 198.887C0.355919 211.851 0.847258 209.394 11.2032 222.094L24.9606 238.572L107.543 238.648L128.557 213.816C128.709 212.418 128.293 212.645 129.578 212.947C129.276 211.662 128.898 211.813 130.069 211.964C129.767 210.717 129.427 210.906 130.674 211.095C130.409 209.848 130.032 209.999 131.203 210.188C130.863 208.941 130.561 209.13 131.732 209.281Z" fill="black"/>
<path fill-rule="evenodd" clip-rule="evenodd" d="M181.773 118.119C162.46 140.154 145.943 174.51 151.915 216.009C157.395 253.842 180.753 279.921 200.217 296.588C223.386 316.355 251.997 332.569 295.121 331.624L295.083 260.721C229.357 260.191 178.485 205.539 196.324 140.002C199.915 126.85 205.168 118.799 211.556 109.577C218.019 100.317 225.313 93.7033 234.119 87.2781C240.242 82.8182 255.512 74.2009 264.923 72.8781C265.641 72.2355 263.638 71.5552 267.417 72.1222C268.816 70.9127 270.668 71.1017 269.005 71.0261L267.606 70.6104C266.85 71.1773 267.304 71.0261 266.057 71.5174C265.414 71.7442 264.696 71.7064 264.129 71.782C250.523 71.8576 225.918 83.045 216.469 88.3741C202.145 96.5379 191.033 107.536 181.773 118.119Z" fill="black"/>
<path fill-rule="evenodd" clip-rule="evenodd" d="M266.246 180.935L265.906 214.081C265.263 214.572 265.187 214.761 264.394 215.215C262.088 216.689 264.432 215.366 262.164 216.387C259.329 218.314 256.381 220.204 252.791 222.472L244.476 227.952C243.682 228.67 243.871 228.519 243.266 229.275L245.647 231.731C262.995 243.183 286.504 247.416 307.178 244.355C327.852 241.294 350.227 227.385 359.147 215.895C370.787 200.853 380.803 181.502 377.326 154.251C374.038 128.361 361.414 114.264 348.261 103.001C315.531 74.9944 260.614 78.585 231.172 109.653C218.208 123.335 207.89 140.342 208.684 167.744C209.326 188.342 217.565 207.165 231.701 220.96C233.742 222.925 232.57 222.207 235.254 223.114V123.561C238.806 120.576 243.38 114.717 246.857 110.862C250.447 106.856 254.605 101.262 258.233 97.7472H334.731L357.446 123.221L357.559 214.119H327.021L326.907 181.01L266.246 180.935Z" fill="black"/>
<path fill-rule="evenodd" clip-rule="evenodd" d="M265.943 154.893L326.945 154.478L327.21 124.128L265.943 124.015V154.893Z" fill="black"/>
<path fill-rule="evenodd" clip-rule="evenodd" d="M361.943 95.0258C376.57 107.952 390.97 126.623 393.653 155.99C394.938 169.974 393.275 184.26 388.816 196.393C381.068 217.52 365.005 234.717 346.22 246.471C329.742 256.79 323.09 255.316 312.394 259.624C328.305 259.775 352.268 252.216 364.173 246.207C386.926 234.679 403.783 220.619 416.331 199.945C444.601 153.419 444.564 92.1911 409.149 50.7297C380.614 17.3565 341.912 -0.445087 295.31 0.00845627L295.121 68.947C323.846 67.6242 347.657 82.4022 361.943 95.0258Z" fill="black"/>
<path fill-rule="evenodd" clip-rule="evenodd" d="M460.665 95.1387C461.534 120.159 460.703 146.843 460.703 172.09V210.452C460.703 216.915 459.304 244.732 461.723 248.247L464.86 246.32L465.881 245.186C465.692 243.976 465.541 244.43 467.052 244.43L493.282 226.402L493.471 182.257H570.385C575.034 174.471 579.456 167.025 584.671 159.013C587.241 155.082 589.093 151.265 591.777 147.296C601.49 132.934 599.563 136.676 593.289 125.828C588.3 117.211 579.758 105.381 576.167 97.5576C574.92 97.5576 575.298 97.7465 575.676 96.3859L574.504 95.4032L460.665 95.1387ZM556.438 152.399H493.471L493.623 124.241L556.438 124.392C557.761 126.017 559.538 129.041 560.974 131.347C562.183 133.312 564.073 136.071 564.904 138.036C564.224 140.115 557.837 150.433 556.438 152.399Z" fill="black"/>
</svg>
