<svg width="1440" height="1440" viewBox="0 0 1440 1440" fill="none" xmlns="http://www.w3.org/2000/svg">
<g clip-path="url(#clip0_1_6)">
<rect width="1440" height="1440" fill="white"/>
<g clip-path="url(#clip1_1_6)">
<rect width="1440" height="1440" transform="translate(0 -18)" fill="white"/>
<path d="M0 702V1422H720H1440V702V-18.0001H720H0V702ZM789.333 353.467C878.533 366.533 950.267 407.733 1000.67 474.8C1026.67 509.467 1044.53 554 1050.93 600.667C1053.2 617.6 1053.2 668.933 1050.93 682C1042.53 729.2 1021.47 780.267 995.333 816C952 875.467 879.467 917.2 798.533 929.2C776.533 932.533 773.2 931.733 790 927.333C809.2 922.4 819.467 918.4 836.933 909.467C870.267 892.267 904.533 862 925.333 831.467C958.533 782.533 967.2 712.4 947.333 653.2C934.267 614.133 910.8 582.133 873.467 552.267C836.4 522.667 797.733 508 746.4 503.867L736 503.067V426.4V349.6L755.6 350.533C766.4 350.933 781.6 352.267 789.333 353.467ZM666.667 513.333C605.2 531.467 557.6 570.933 529.467 627.2C515.067 655.733 509.467 678.267 508.4 712C507.067 756 514.8 790 533.467 822.267C570.267 886 641.467 927.867 722.8 933.467L736 934.4V1013.73V1093.07L713.067 1092.27C687.067 1091.33 668.4 1088.4 644.533 1081.47C594.933 1067.07 548.133 1038.67 504.8 996.667C457.467 950.8 429.6 902.267 417.6 844.667C414.4 829.333 414.133 825.333 414 794.667C414 758.133 415.6 746.133 423.867 718.933C448.133 640.133 512.533 567.467 587.733 534.133C616.533 521.2 659.733 508.933 676.667 508.8C680.8 508.8 678.667 509.733 666.667 513.333ZM754.8 539.467C798.8 543.867 834.4 560.4 867.067 591.333C896 618.8 911.733 647.6 918.933 686.4C922.8 707.333 921.867 740.4 916.933 760.133C902.667 816.533 866.267 858.133 809.333 882.933C780.267 895.733 755.467 900.267 723.467 898.933C702.933 898 686.667 894.933 667.867 888.667C649.467 882.533 621.733 868 620.4 863.867C620.133 863.067 629.067 856.533 640.267 849.333C651.467 842 662.933 834.4 665.6 832.267L670.667 828.533L670.933 791.6L671.333 754.667H739.333H807.333L807.733 792.4L808 830L841.733 829.733L875.333 829.333L875.6 728L875.867 626.667L850.4 597.6L824.933 568.667H739.2H653.6L630.533 594.933C617.733 609.467 606.4 622.533 605.067 623.867C602.8 626.4 602.667 633.067 602.667 737.467C602.667 801.467 602.133 848.8 601.467 849.2C599.733 850.267 579.6 828.533 572.133 817.467C554.133 790.8 544.933 762.533 543.067 727.867C540.533 677.6 557.467 632.267 593.2 594.933C632.933 553.2 691.867 532.933 754.8 539.467ZM113.467 565.333L148.667 590L149.333 704.4L150 818.667H224H298L298.267 706.667C298.533 645.067 298.667 593.867 298.667 592.933C298.667 591.733 306.933 591.333 335.333 591.333H372V704.667V817.867L345.067 850.267C330.267 868.133 317.467 883.067 316.667 883.6C316 884.133 274 884.533 223.333 884.267L131.333 884L103.733 850.8L76 817.467V679.067C76 602.933 76.5333 540.667 77.0667 540.667C77.6 540.667 94 551.733 113.467 565.333ZM1363.87 566.267C1366.13 570 1381.73 595.333 1401.6 627.6C1409.47 640.533 1416 652 1416 652.933C1416 653.867 1411.47 662.133 1405.87 671.333C1400.27 680.533 1391.6 694.533 1386.67 702.667C1375.87 720.267 1357.2 750.8 1354.53 754.933L1352.67 758L1266.67 758.267L1180.67 758.667L1180 807.867L1179.33 857.067L1144 881.467C1124.67 894.8 1108.27 905.467 1107.73 905.2C1107.2 904.8 1106.67 827.733 1106.67 733.867V563.333H1234.4H1362L1363.87 566.267ZM807.733 662.267L808 696.667H739.333H670.667V662V627.333L739.067 627.6L807.333 628L807.733 662.267Z" fill="black"/>
<path d="M1180.53 630.4C1180.27 631.333 1180.13 645.2 1180.27 661.333L1180.67 690.667L1251.33 690.933L1322 691.333L1331.2 675.867C1336.27 667.467 1340.4 659.867 1340.4 658.933C1340.4 658 1336.27 650.933 1331.33 642.933L1322.13 628.667H1251.73C1195.87 628.667 1181.07 629.067 1180.53 630.4Z" fill="black"/>
</g>
</g>
<defs>
<clipPath id="clip0_1_6">
<rect width="1440" height="1440" fill="white"/>
</clipPath>
<clipPath id="clip1_1_6">
<rect width="1440" height="1440" fill="white" transform="translate(0 -18)"/>
</clipPath>
</defs>
</svg>
