<?xml version="1.0" standalone="no"?>
<!DOCTYPE svg PUBLIC "-//W3C//DTD SVG 20010904//EN"
 "http://www.w3.org/TR/2001/REC-SVG-20010904/DTD/svg10.dtd">
<svg version="1.0" xmlns="http://www.w3.org/2000/svg"
 width="1080.000000pt" height="1080.000000pt" viewBox="0 0 1080.000000 1080.000000"
 preserveAspectRatio="xMidYMid meet">

<g transform="translate(0.000000,1080.000000) scale(0.100000,-0.100000)"
fill="#000000" stroke="none">
<path d="M0 5400 l0 -5400 5400 0 5400 0 0 5400 0 5400 -5400 0 -5400 0 0
-5400z m5920 2614 c669 -98 1207 -407 1585 -910 195 -260 329 -594 377 -944
17 -127 17 -512 0 -610 -63 -354 -221 -737 -417 -1005 -325 -446 -869 -759
-1476 -849 -165 -25 -190 -19 -64 14 144 37 221 67 352 134 250 129 507 356
663 585 249 367 314 893 165 1337 -98 293 -274 533 -554 757 -278 222 -568
332 -953 363 l-78 6 0 575 0 576 147 -7 c81 -3 195 -13 253 -22z m-920 -1199
c-461 -136 -818 -432 -1029 -854 -108 -214 -150 -383 -158 -636 -10 -330 48
-585 188 -827 276 -478 810 -792 1420 -834 l99 -7 0 -595 0 -595 -172 6 c-195
7 -335 29 -514 81 -372 108 -723 321 -1048 636 -355 344 -564 708 -654 1140
-24 115 -26 145 -27 375 0 274 12 364 74 568 182 591 665 1136 1229 1386 216
97 540 189 667 190 31 0 15 -7 -75 -34z m661 -196 c330 -33 597 -157 842 -389
217 -206 335 -422 389 -713 29 -157 22 -405 -15 -553 -107 -423 -380 -735
-807 -921 -218 -96 -404 -130 -644 -120 -154 7 -276 30 -417 77 -138 46 -346
155 -356 186 -2 6 65 55 149 109 84 55 170 112 190 128 l38 28 2 277 3 277
510 0 510 0 3 -283 2 -282 253 2 252 3 2 760 2 760 -191 218 -191 217 -643 0
-642 0 -173 -197 c-96 -109 -181 -207 -191 -217 -17 -19 -18 -69 -18 -852 0
-480 -4 -835 -9 -838 -13 -8 -164 155 -220 238 -135 200 -204 412 -218 672
-19 377 108 717 376 997 298 313 740 465 1212 416z m-4810 -194 l264 -185 5
-858 5 -857 555 0 555 0 2 840 c2 462 3 846 3 853 0 9 62 12 275 12 l275 0 0
-850 0 -849 -202 -243 c-111 -134 -207 -246 -213 -250 -5 -4 -320 -7 -700 -5
l-690 2 -207 249 -208 250 0 1038 c0 571 4 1038 8 1038 4 0 127 -83 273 -185z
m9378 -7 c17 -28 134 -218 283 -460 59 -97 108 -183 108 -190 0 -7 -34 -69
-76 -138 -42 -69 -107 -174 -144 -235 -81 -132 -221 -361 -241 -392 l-14 -23
-645 -2 -645 -3 -5 -369 -5 -369 -265 -183 c-145 -100 -268 -180 -272 -178 -4
3 -8 581 -8 1285 l0 1279 958 0 957 0 14 -22z m-4171 -720 l2 -258 -515 0
-515 0 0 260 0 260 513 -2 512 -3 3 -257z"/>
<path d="M8854 5937 c-2 -7 -3 -111 -2 -232 l3 -220 530 -2 530 -3 69 116 c38
63 69 120 69 127 0 7 -31 60 -68 120 l-69 107 -528 0 c-419 0 -530 -3 -534
-13z"/>
</g>
</svg>
